<mxfile host="app.diagrams.net" modified="2021-08-29T03:29:31.544Z" agent="5.0 (Macintosh; Intel Mac OS X 10_15_7) AppleWebKit/605.1.15 (KHTML, like Gecko) Version/14.1.2 Safari/605.1.15" etag="68mplNqlxl1VHno1p6qo" version="14.9.9" type="github">
  <diagram id="wFzaffeXQ7VRJMGma-Pl" name="Page-1">
    <mxGraphModel dx="946" dy="645" grid="1" gridSize="10" guides="1" tooltips="1" connect="1" arrows="1" fold="1" page="1" pageScale="1" pageWidth="850" pageHeight="1100" math="0" shadow="0">
      <root>
        <mxCell id="0" />
        <mxCell id="1" parent="0" />
        <mxCell id="X_BAgNN6_1CiZIF0NYe0-5" value="CUSTOMER" style="whiteSpace=wrap;html=1;aspect=fixed;" vertex="1" parent="1">
          <mxGeometry x="40" y="230" width="80" height="80" as="geometry" />
        </mxCell>
        <mxCell id="X_BAgNN6_1CiZIF0NYe0-6" value="VENDOR" style="whiteSpace=wrap;html=1;aspect=fixed;" vertex="1" parent="1">
          <mxGeometry x="40" y="420" width="80" height="80" as="geometry" />
        </mxCell>
        <mxCell id="X_BAgNN6_1CiZIF0NYe0-7" value="EMPLOYEE&lt;br&gt;" style="whiteSpace=wrap;html=1;aspect=fixed;" vertex="1" parent="1">
          <mxGeometry x="710" y="280" width="80" height="80" as="geometry" />
        </mxCell>
        <mxCell id="X_BAgNN6_1CiZIF0NYe0-8" value="" style="endArrow=classic;html=1;exitX=1;exitY=0.5;exitDx=0;exitDy=0;" edge="1" parent="1" source="X_BAgNN6_1CiZIF0NYe0-5">
          <mxGeometry width="50" height="50" relative="1" as="geometry">
            <mxPoint x="130" y="270" as="sourcePoint" />
            <mxPoint x="350" y="140" as="targetPoint" />
          </mxGeometry>
        </mxCell>
        <mxCell id="X_BAgNN6_1CiZIF0NYe0-9" value="Customer Order&lt;br&gt;" style="text;html=1;align=center;verticalAlign=middle;resizable=0;points=[];autosize=1;strokeColor=none;" vertex="1" parent="1">
          <mxGeometry x="150" y="180" width="100" height="20" as="geometry" />
        </mxCell>
        <mxCell id="X_BAgNN6_1CiZIF0NYe0-10" value="" style="endArrow=classic;html=1;exitX=1;exitY=0.85;exitDx=0;exitDy=0;exitPerimeter=0;" edge="1" parent="1" source="X_BAgNN6_1CiZIF0NYe0-5">
          <mxGeometry width="50" height="50" relative="1" as="geometry">
            <mxPoint x="150" y="290" as="sourcePoint" />
            <mxPoint x="370" y="160" as="targetPoint" />
          </mxGeometry>
        </mxCell>
        <mxCell id="X_BAgNN6_1CiZIF0NYe0-11" value="Payment&lt;br&gt;" style="text;html=1;align=center;verticalAlign=middle;resizable=0;points=[];autosize=1;strokeColor=none;" vertex="1" parent="1">
          <mxGeometry x="230" y="240" width="60" height="20" as="geometry" />
        </mxCell>
        <mxCell id="X_BAgNN6_1CiZIF0NYe0-12" value="" style="endArrow=classic;html=1;" edge="1" parent="1">
          <mxGeometry width="50" height="50" relative="1" as="geometry">
            <mxPoint x="380" y="310" as="sourcePoint" />
            <mxPoint x="130" y="310" as="targetPoint" />
          </mxGeometry>
        </mxCell>
        <mxCell id="X_BAgNN6_1CiZIF0NYe0-13" value="Product Served&lt;br&gt;" style="text;html=1;align=center;verticalAlign=middle;resizable=0;points=[];autosize=1;strokeColor=none;" vertex="1" parent="1">
          <mxGeometry x="200" y="290" width="100" height="20" as="geometry" />
        </mxCell>
        <mxCell id="X_BAgNN6_1CiZIF0NYe0-14" value="1.0&amp;nbsp;&lt;br&gt;Sale&lt;br&gt;" style="ellipse;whiteSpace=wrap;html=1;" vertex="1" parent="1">
          <mxGeometry x="365" y="90" width="120" height="80" as="geometry" />
        </mxCell>
        <mxCell id="X_BAgNN6_1CiZIF0NYe0-15" value="2.0&lt;br&gt;Production" style="ellipse;whiteSpace=wrap;html=1;" vertex="1" parent="1">
          <mxGeometry x="360" y="240" width="120" height="80" as="geometry" />
        </mxCell>
        <mxCell id="X_BAgNN6_1CiZIF0NYe0-16" value="3.0&lt;br&gt;Procure-ment" style="ellipse;whiteSpace=wrap;html=1;" vertex="1" parent="1">
          <mxGeometry x="365" y="350" width="120" height="80" as="geometry" />
        </mxCell>
        <mxCell id="X_BAgNN6_1CiZIF0NYe0-18" value="" style="endArrow=classic;html=1;" edge="1" parent="1" target="X_BAgNN6_1CiZIF0NYe0-16">
          <mxGeometry relative="1" as="geometry">
            <mxPoint x="120" y="429" as="sourcePoint" />
            <mxPoint x="220" y="429" as="targetPoint" />
          </mxGeometry>
        </mxCell>
        <mxCell id="X_BAgNN6_1CiZIF0NYe0-19" value="Received Goods&lt;br&gt;" style="edgeLabel;resizable=0;html=1;align=center;verticalAlign=middle;" connectable="0" vertex="1" parent="X_BAgNN6_1CiZIF0NYe0-18">
          <mxGeometry relative="1" as="geometry" />
        </mxCell>
        <mxCell id="X_BAgNN6_1CiZIF0NYe0-21" value="" style="endArrow=classic;html=1;" edge="1" parent="1">
          <mxGeometry relative="1" as="geometry">
            <mxPoint x="380" y="420" as="sourcePoint" />
            <mxPoint x="130" y="460" as="targetPoint" />
          </mxGeometry>
        </mxCell>
        <mxCell id="X_BAgNN6_1CiZIF0NYe0-22" value="Purchase Order&lt;br&gt;" style="edgeLabel;resizable=0;html=1;align=center;verticalAlign=middle;" connectable="0" vertex="1" parent="X_BAgNN6_1CiZIF0NYe0-21">
          <mxGeometry relative="1" as="geometry" />
        </mxCell>
        <mxCell id="X_BAgNN6_1CiZIF0NYe0-23" value="" style="endArrow=classic;html=1;exitX=0.242;exitY=0.975;exitDx=0;exitDy=0;exitPerimeter=0;" edge="1" parent="1" source="X_BAgNN6_1CiZIF0NYe0-16">
          <mxGeometry relative="1" as="geometry">
            <mxPoint x="390" y="450" as="sourcePoint" />
            <mxPoint x="140" y="490" as="targetPoint" />
          </mxGeometry>
        </mxCell>
        <mxCell id="X_BAgNN6_1CiZIF0NYe0-24" value="Payment&lt;br&gt;" style="edgeLabel;resizable=0;html=1;align=center;verticalAlign=middle;" connectable="0" vertex="1" parent="X_BAgNN6_1CiZIF0NYe0-23">
          <mxGeometry relative="1" as="geometry" />
        </mxCell>
        <mxCell id="X_BAgNN6_1CiZIF0NYe0-26" value="4.0&lt;br&gt;Payroll&lt;br&gt;" style="ellipse;whiteSpace=wrap;html=1;" vertex="1" parent="1">
          <mxGeometry x="365" y="480" width="120" height="80" as="geometry" />
        </mxCell>
        <mxCell id="X_BAgNN6_1CiZIF0NYe0-28" value="" style="endArrow=classic;html=1;entryX=-0.05;entryY=0.113;entryDx=0;entryDy=0;entryPerimeter=0;" edge="1" parent="1" target="X_BAgNN6_1CiZIF0NYe0-7">
          <mxGeometry relative="1" as="geometry">
            <mxPoint x="480" y="110" as="sourcePoint" />
            <mxPoint x="640" y="110" as="targetPoint" />
          </mxGeometry>
        </mxCell>
        <mxCell id="X_BAgNN6_1CiZIF0NYe0-29" value="Sales Forcast&lt;br&gt;" style="edgeLabel;resizable=0;html=1;align=center;verticalAlign=middle;" connectable="0" vertex="1" parent="X_BAgNN6_1CiZIF0NYe0-28">
          <mxGeometry relative="1" as="geometry" />
        </mxCell>
        <mxCell id="X_BAgNN6_1CiZIF0NYe0-33" value="" style="endArrow=classic;html=1;entryX=0.967;entryY=0.713;entryDx=0;entryDy=0;entryPerimeter=0;" edge="1" parent="1" target="X_BAgNN6_1CiZIF0NYe0-15">
          <mxGeometry relative="1" as="geometry">
            <mxPoint x="700" y="300" as="sourcePoint" />
            <mxPoint x="490" y="300" as="targetPoint" />
          </mxGeometry>
        </mxCell>
        <mxCell id="X_BAgNN6_1CiZIF0NYe0-34" value="Production&lt;br&gt;Schedule&lt;br&gt;" style="edgeLabel;resizable=0;html=1;align=center;verticalAlign=middle;" connectable="0" vertex="1" parent="X_BAgNN6_1CiZIF0NYe0-33">
          <mxGeometry relative="1" as="geometry" />
        </mxCell>
        <mxCell id="X_BAgNN6_1CiZIF0NYe0-35" value="" style="endArrow=classic;html=1;" edge="1" parent="1">
          <mxGeometry relative="1" as="geometry">
            <mxPoint x="704" y="340" as="sourcePoint" />
            <mxPoint x="490" y="380" as="targetPoint" />
          </mxGeometry>
        </mxCell>
        <mxCell id="X_BAgNN6_1CiZIF0NYe0-36" value="Order Decisions" style="edgeLabel;resizable=0;html=1;align=center;verticalAlign=middle;" connectable="0" vertex="1" parent="X_BAgNN6_1CiZIF0NYe0-35">
          <mxGeometry relative="1" as="geometry" />
        </mxCell>
        <mxCell id="X_BAgNN6_1CiZIF0NYe0-38" value="" style="endArrow=classic;html=1;entryX=0;entryY=1;entryDx=0;entryDy=0;" edge="1" parent="1" target="X_BAgNN6_1CiZIF0NYe0-7">
          <mxGeometry relative="1" as="geometry">
            <mxPoint x="480" y="500" as="sourcePoint" />
            <mxPoint x="570" y="500" as="targetPoint" />
          </mxGeometry>
        </mxCell>
        <mxCell id="X_BAgNN6_1CiZIF0NYe0-39" value="Pay" style="edgeLabel;resizable=0;html=1;align=center;verticalAlign=middle;" connectable="0" vertex="1" parent="X_BAgNN6_1CiZIF0NYe0-38">
          <mxGeometry relative="1" as="geometry" />
        </mxCell>
        <mxCell id="X_BAgNN6_1CiZIF0NYe0-41" value="" style="endArrow=classic;html=1;exitX=0.675;exitY=1.05;exitDx=0;exitDy=0;exitPerimeter=0;" edge="1" parent="1" source="X_BAgNN6_1CiZIF0NYe0-7">
          <mxGeometry relative="1" as="geometry">
            <mxPoint x="710" y="490" as="sourcePoint" />
            <mxPoint x="496" y="530" as="targetPoint" />
          </mxGeometry>
        </mxCell>
        <mxCell id="X_BAgNN6_1CiZIF0NYe0-42" value="TIme Worked&lt;br&gt;" style="edgeLabel;resizable=0;html=1;align=center;verticalAlign=middle;" connectable="0" vertex="1" parent="X_BAgNN6_1CiZIF0NYe0-41">
          <mxGeometry relative="1" as="geometry" />
        </mxCell>
        <mxCell id="X_BAgNN6_1CiZIF0NYe0-43" value="STEP 2: Construct Context Level-1 DFD(identify manageable sub process)" style="text;html=1;align=center;verticalAlign=middle;resizable=0;points=[];autosize=1;strokeColor=none;" vertex="1" parent="1">
          <mxGeometry x="210" y="50" width="410" height="20" as="geometry" />
        </mxCell>
      </root>
    </mxGraphModel>
  </diagram>
</mxfile>
